<svg width="30" height="28" viewBox="0 0 30 28" fill="none" xmlns="http://www.w3.org/2000/svg">
<g clip-path="url(#clip0_3_52)">
<path d="M15 2.92157C12.9545 2.92157 11.3565 3.57108 10.206 4.8701C9.0554 6.16912 8.48011 7.82966 8.48011 9.85172C8.46591 12.364 9.40341 14.3554 11.2926 15.826C11.5341 16.0221 11.6193 16.2733 11.5483 16.5797L11.0582 17.462C10.902 17.7561 10.6712 17.9859 10.3658 18.1513C10.0604 18.3168 9.41761 18.5527 8.4375 18.8591C8.39489 18.8713 7.49645 19.1225 5.74219 19.6127C3.98793 20.1029 3.05398 20.3725 2.94034 20.4216C1.74716 20.8505 0.965909 21.2978 0.596591 21.7635C0.198864 22.5355 0 24.4902 0 27.6275H30C30 24.4902 29.8011 22.5355 29.4034 21.7635C29.0341 21.2978 28.2528 20.8505 27.0597 20.4216C26.946 20.3725 26.0121 20.1029 24.2578 19.6127C22.5036 19.1225 21.6051 18.8713 21.5625 18.8591C20.5824 18.5527 19.9396 18.3168 19.6342 18.1513C19.3288 17.9859 19.098 17.7561 18.9418 17.462L18.4517 16.5797C18.3807 16.2733 18.4659 16.0221 18.7074 15.826C20.5966 14.3554 21.5341 12.364 21.5199 9.85172C21.5199 7.82966 20.9446 6.16912 19.794 4.8701C18.6435 3.57108 17.0455 2.92157 15 2.92157Z" fill="white"/>
</g>
<defs>
<clipPath id="clip0_3_52">
<rect width="30" height="27.0588" fill="white" transform="translate(0 0.568634)"/>
</clipPath>
</defs>
</svg>
