<svg width="30" height="31" viewBox="0 0 30 31" fill="none" xmlns="http://www.w3.org/2000/svg">
<path d="M26.6484 25.6028L19.04 17.9944C20.2207 16.468 20.8594 14.6018 20.8594 12.6389C20.8594 10.2893 19.9424 8.08621 18.2842 6.42508C16.626 4.76395 14.417 3.84988 12.0703 3.84988C9.72363 3.84988 7.51465 4.76688 5.85645 6.42508C4.19531 8.08328 3.28125 10.2893 3.28125 12.6389C3.28125 14.9856 4.19824 17.1946 5.85645 18.8528C7.51465 20.5139 9.7207 21.428 12.0703 21.428C14.0332 21.428 15.8965 20.7893 17.4229 19.6116L25.0312 27.2171C25.0536 27.2394 25.08 27.2571 25.1092 27.2692C25.1384 27.2813 25.1696 27.2875 25.2012 27.2875C25.2327 27.2875 25.264 27.2813 25.2931 27.2692C25.3223 27.2571 25.3488 27.2394 25.3711 27.2171L26.6484 25.9427C26.6708 25.9203 26.6885 25.8939 26.7005 25.8647C26.7126 25.8355 26.7189 25.8043 26.7189 25.7727C26.7189 25.7412 26.7126 25.7099 26.7005 25.6808C26.6885 25.6516 26.6708 25.6251 26.6484 25.6028ZM16.7109 17.2796C15.4688 18.5188 13.8223 19.2014 12.0703 19.2014C10.3184 19.2014 8.67188 18.5188 7.42969 17.2796C6.19043 16.0374 5.50781 14.3909 5.50781 12.6389C5.50781 10.887 6.19043 9.23758 7.42969 7.99832C8.67188 6.75906 10.3184 6.07645 12.0703 6.07645C13.8223 6.07645 15.4717 6.75613 16.7109 7.99832C17.9502 9.24051 18.6328 10.887 18.6328 12.6389C18.6328 14.3909 17.9502 16.0403 16.7109 17.2796Z" fill="white"/>
</svg>
