<svg width="30" height="28" viewBox="0 0 30 28" fill="none" xmlns="http://www.w3.org/2000/svg">
<path d="M26.35 8.4608C26.134 8.12326 25.8247 7.84197 25.4523 7.64438C25.0799 7.44678 24.657 7.33962 24.225 7.33335H8.225L7.5 4.78531C7.42675 4.53934 7.26333 4.32299 7.03635 4.17149C6.80937 4.01999 6.5322 3.94228 6.25 3.95099H3.75C3.41848 3.95099 3.10054 4.06978 2.86612 4.28122C2.6317 4.49265 2.5 4.77943 2.5 5.07844C2.5 5.37746 2.6317 5.66423 2.86612 5.87567C3.10054 6.08711 3.41848 6.2059 3.75 6.2059H5.3L8.75 17.7735C8.82325 18.0195 8.98667 18.2359 9.21365 18.3874C9.44063 18.5389 9.7178 18.6166 10 18.6079H21.25C21.4808 18.6072 21.707 18.549 21.9033 18.4395C22.0997 18.33 22.2586 18.1737 22.3625 17.9878L26.4625 10.5917C26.6402 10.2557 26.7229 9.8853 26.7033 9.51348C26.6837 9.14166 26.5623 8.78001 26.35 8.4608ZM20.475 16.353H10.95L8.9125 9.58825H24.225L20.475 16.353Z" fill="white"/>
<path d="M9.375 24.2451C10.4105 24.2451 11.25 23.4879 11.25 22.5539C11.25 21.6199 10.4105 20.8628 9.375 20.8628C8.33947 20.8628 7.5 21.6199 7.5 22.5539C7.5 23.4879 8.33947 24.2451 9.375 24.2451Z" fill="white"/>
<path d="M21.875 24.2451C22.9105 24.2451 23.75 23.4879 23.75 22.5539C23.75 21.6199 22.9105 20.8628 21.875 20.8628C20.8395 20.8628 20 21.6199 20 22.5539C20 23.4879 20.8395 24.2451 21.875 24.2451Z" fill="white"/>
</svg>
