<svg id="Слой_1" data-name="Слой 1" xmlns="http://www.w3.org/2000/svg" viewBox="0 0 323.8 47">
  <defs>
    <style>
      .cls-1,.cls-2,.cls-3{fill:#fff;}.cls-1,.cls-2{stroke:#fff;stroke-miterlimit:10;}.cls-1{fill-rule:evenodd;}
    </style>
  </defs>
<path class="cls-1" d="M44.9,45.7l-1-.7-1.3-1.3L41.5,42l-.7-1.1-.6-1-.5-1.1-.5-1.3-.9-2.4-1.8-6.3-2.3-9.5-1.1-4.8-1.3-5L31.3,8l-.5-1.3-.7-1.4L29,3.9l-1.1-1-1.3-.7-1.8-.6-2-.4-2.3-.1H18.6L17,1.2l-1.8.2-1.4.4-1.7.7L10.2,3.7,8.9,5,8,6.4,7.6,7.5,7.4,8.7l.2,1.2.5.9L9.2,9.4l.7-1,.5-.7L11,7l.9-.7a1.8,1.8,0,0,1,1.8-.2,1.54,1.54,0,0,1,.5,1.6L14,9l-.4,1.6-2,6.9-1.3,4.9L9,27.3,7.8,31.8,6.9,35l-.8,2.3-.7,2.2L4.2,42.4,2.9,45,1,45.1v1.7l14.8.1.1-1.4-2-.2L13,43.7l-.4-1-.4-1.3-.3-1.6-.1-2.7.1-3.3.2-2.8.5-3.3.9-5,14,.1.9,3.5,1.1,5,.9,4.6L32,43.8l-1.4.4-.7.5-.6.8v1.3l16.1.1V45.7ZM14.4,20,17.6,6.9h1.9l.9.2.8.4.8.7.7.7.6.9.7,1.1.6,1.3.5,1.3.4,1.3.3,1.2.4,1.8.4,2.4Z" transform="translate(-0.5 -0.5)"/>
<path class="cls-1" d="M49.9,2.6l16.3-.1V4l-1.9.7L62.6,5.9,61.5,7.7l-.4,12,18.2-.1L79.1,7.9l-.8-1.6L76.9,5.2,74.3,3.9V2.5l15.2-.1V3.9L87.2,5.3,86,6.9l1.3,34.4.2,1.3.5,1,.8.7,1.2.5,2.5.9v1.2l-16,.1V45.6l1.6-.6.8-.4.7-.7.4-1.1.1-1.4-.6-18.5-18.4.2-.3,8.4-.3,6.3.1,4.4.2.9.4.9.4.5.6.6,1.8.4.1,1.6H47.4l.1-1.3,1.8-.4,1.5-.8,1.1-1.3.5-1,.4-1.2L53.2,22l.6-14.8-.9-1.5L52,4.8l-1.9-.9Z" transform="translate(-0.5 -0.5)"/>
<path class="cls-1" d="M99.4,1.4H101V2.7l25.6-.2V1.4h1.6l4.9,10.2-2.4.7-7.4-6.8h-6.2l.1,37.5,2.7,2.6,1.2.2V47l-14.9.1V45.9l1.4-.3,2.6-2.7V5.4h-6.3l-7.1,6.8-2.4-.5Z" transform="translate(-0.5 -0.5)"/>
<path class="cls-1" d="M134.7,2.7l15.7-.2V4.3l-2.5.8-.7.8L146.7,7l-.2,1.6.2,1.7.8,3.1,1.3,3,2,3.6,2.3,3.1,2.6,2.7,3,2.6,2.7,1.7,2.1,1,.8-1.7.7-2.2.5-2.5.2-3.2-.2-3.8-.7-3.5-1-2.5-1.2-1.8-1.2-1.3-.7-1.4-.5-1.7-.1-2.1L161,2l1.3-.6,1.7-.2,1.5.1,1.6.7,1.4,1.2.9,1.5.8,1.6.6,2.4.4,3.8-.1,2.9-.3,2.6-.6,3.5-.6,3.4-1,3.4-1.4,3.8-1.7,3.4-2,3.2-2,2.4-2.1,2.1-2.3,1.7-2.6,1.5-2.6.9-2.4.5-2.8.3h-3.2l-3.7-.5-1.7-.6-1.4-.9-1-1.5-.1-2,.6-1.1.6-.7,1.3-.6,1.1-.2,3,.3,2.4.6,2.9,1.3,1.7.6,2,.1,2.5-.3,1.6-.6,1.6-.9,1.7-1.5.9-1.3.3-1.2-.6-.6-2.4-1.3-2.7-1.6-2.4-1.8-2.4-2.1-2.7-3.1-1.5-1.8-1.3-2.2-1-1.9-1.2-2.8-1.5-4.4-1.4-5.1-1-3.2-2.5-.9Z" transform="translate(-0.5 -0.5)"/>
<path class="cls-1" d="M173.7,4.9l4.6-.9,5-1.6h17.8l2.8,1.2,1.7,1.2,1.7,1.5L208.7,8l.7,2,.3,2.2-.4,3.1-.6,1.6-.9,1.7-1.7,1.9L204,22l-2.2,1-2.1.8-2.3.7-2.6,1.2-2,1.6-1.1,1.6-.5,1.8.2,1.3.7,1.3,1.2,1,1.5.6,1.4.9.4.8.4,1.3-.2,1.3-.9,1.1-1.6.5-1.8-.3-1.7-1.3-1.3-2-.6-1.6-.4-3.3.4-2.9,1.2-2.7,1.9-2.6,1.6-1.6,2.4-2,1.9-1.4,1.3-1.5.7-1.6.4-1.7.2-1.4-.2-2.1-1.2-2.4-1.5-1.6-1.9-1.1-2.6-.8-2.8-.2-2.9.2-2.6.6.1,38.2.9.7.7.6.8.7,1.2.1v1.5l-14.6-.1V45.8l1.2-.1,1.2-.8,1-.7.6-.5-.1-34.5-2-1.7-1.7-1.1Z" transform="translate(-0.5 -0.5)"/>
<path class="cls-1" d="M280.4,2.4l16.1-.1-.3,1.6-.8.4-1.2.8-.8.8L292.6,7l-.1,16,2.2-.1,2.9-.6,2.6-.7,2.2-.7,2.5-1.3,1.6-1.2.9-.8,1-1.4.7-1.7.6-1.9.1-1.8-.3-1.5-.4-1.1-.4-1.3V5.4l.4-1.3.6-1.2,1.1-1,1.2-.5,1.2-.2h1.1l1.4.2,1.5.7.7,1.2.5,1,.3,1.3V8.4l-.3,1.3-.4,1.1-.7,1.5-.7,1.2-1.1,1.6L313.6,17l-1.2,1-2,1.6-1.7,1.2-2.2,1.1-1.8.8-2.5.9,2.2.8,1.9,1.1,2,1.6,2.1,2.1,1.8,2.4,1.9,3.2,1.4,3.3,1,3.8,1.3,4.6.9,2.8,1.3,2.2,1.6,1.8,1.7,1.9-2.2.3-2.5-.2-2.1-.7-1.8-1-2.6-2-1.8-2.1-1.4-2.1-1-1.8-1-2.6-1-3-.7-2.6-.6-3.2-.6-2.9-.9-2.4-1-1.5-1.3-1.1-1.3-.5-1.6-.2h-5.5l.3,17.7.6.8.8.7,1,.4,1,.2.5,1.7h-16l.3-1.8,1.2-.3,1.1-.4.7-.5.5-.6.2-18.1-5.7.1-1.4.5L276,27.1l-1.5,1.8-1.1,2.6-.7,3.5-.4,2.8-.6,2.5-1.2,3.1-1.6,3.3-2.1,2.5-2.3,2.1L262,53l-1.5.7-2.3.9-1.6.4-1.7.2,2-3.5,1.1-2,.8-2.2.8-2.1.5-2,1.1-4.1,1.4-3.9,1.7-3.1,1.5-1.8,1.5-1.6,1.9-1.6,1.9-1.2,3.7-2.2-2.2-1-2.4-1.2L268,20.4l-2.7-1.9-2-1.9-1-1-1.4-1.5-1-1.5-.8-1.6-.8-1.7-.4-1.9-.1-1.8.4-1.8.8-1.5,1.1-.8,1.2-.4,1.1-.1,1.3.1,1.5.3,1.4,1.1.9,1.2.5,1.6V6.9l-.2,1.4-.4,1.7-.1,2,.3,1.9.7,1.7,1.2,1.6,1.3,1.2,1.8,1.3,1.5.9,1.9.9,1.5.6,1.7.4,2.7.4,2.7.1-.2-16-.7-1.1-1-.8-1-.7-1.2-.5Z" transform="translate(-0.5 -0.5)"/>
<path class="cls-2" d="M255.5,46.1l-1-.7-1.3-1.3-1.1-1.7-.7-1.1-.6-1-.5-1.1-.5-1.3-.9-2.4-1.8-6.3-2.3-9.5-1.1-4.8-1.3-5-.5-1.5-.5-1.3-.7-1.4-1.1-1.4-1.1-1-1.3-.7L235.4,2l-2-.4-2.3-.1h-1.9l-1.6.1-1.8.2-1.4.4-1.7.7-1.9,1.2-1.3,1.3-.9,1.4-.4,1.1L218,9.1l.2,1.2.5.9,1.1-1.4.7-1,.5-.7.6-.7.9-.7a1.8,1.8,0,0,1,1.8-.2,1.54,1.54,0,0,1,.5,1.6l-.2,1.3-.4,1.6-2,6.9-1.3,4.9-1.3,4.9-1.2,4.5-.9,3.2-.8,2.3-.7,2.2-1.2,2.9-1.3,2.6-1.9.1v1.7l14.8.1.1-1.4-2-.2-.9-1.6-.4-1-.4-1.3-.3-1.6-.1-2.7.1-3.3.2-2.8.5-3.3.9-5,14,.1.9,3.5,1.1,5,.9,4.6,1.6,7.9-1.4.4-.7.5-.6.8v1.3l16.1.1V46.1ZM224.9,20.4l3.2-13.1H230l.9.2.8.4.8.7.7.7.6.9.7,1.1.6,1.3.5,1.3.4,1.3.3,1.2.4,1.8.4,2.4Z" transform="translate(-0.5 -0.5)"/></svg>
